<svg xmlns="http://www.w3.org/2000/svg" width="62" height="58" stroke="#000" stroke-linecap="round" stroke-linejoin="round" fill="#fff" fill-rule="evenodd"><path d="M7.936.5c1.8993 0 3.3865.629 4.4672 1.8813s1.6598 2.8324 1.7377 4.7254c0 1.8697-.607 3.4468-1.8298 4.7282s-2.8935 1.9195-5.0073 1.9195h-.0753c-2.0636 0-3.6984-.6407-4.9155-1.9195C1.11 10.5535.5 8.9764.5 7.1067c0-1.9223.6628-3.5023 1.9996-4.7458S5.6522.5 7.936.5zM1.2993 19.0036h13.0422V57.497H1.2993V19.0036zM61.5 35.4267V57.497H48.4606V36.9102c0-2.6187-.5125-4.7166-1.5318-6.3142-1.0137-1.583-2.7098-2.3758-5.1048-2.3758-1.8242 0-3.289.4857-4.3808 1.463-1.0946.9715-1.8883 2.045-2.3672 3.2243-.156.4272-.2537.8982-.3064 1.422-.05.515-.0725 1.0738-.0725 1.662V57.5h-13.12l.0863-17.9067V26.532l-.0503-4.8483-.036-2.68h13.12v5.451l-.0724.158h.0724v-.158c.4066-.67.9274-1.3693 1.5624-2.1037.6434-.7315 1.412-1.4162 2.3477-2.0482.9274-.6262 2.0443-1.141 3.3532-1.5595 1.3173-.4126 2.8156-.6174 4.5228-.6174 2.1223 0 4.105.3394 5.9544 1.021 1.8438.6818 3.4284 1.7498 4.7764 3.207 1.3395 1.4483 2.3894 3.2506 3.1526 5.404.7602 2.1477 1.1334 4.705 1.1334 7.6688z" fill="#4f4f4f" stroke="none"/></svg>