<?xml version="1.0"?>
<svg xmlns="http://www.w3.org/2000/svg" height="512px" viewBox="0 0 512 512" width="512px" class=""><g><link xmlns="" type="text/css" id="dark-mode" rel="stylesheet"/><path d="m416 512h-320c-53.023438 0-96-42.976562-96-96v-320c0-53.023438 42.976562-96 96-96h320c53.023438 0 96 42.976562 96 96v320c0 53.023438-42.976562 96-96 96zm0 0" fill="#f5e6fe" data-original="#F5E6FE" class="" style="fill:#4DB5FF" data-old_color="#f5e6fe"/><g fill="#be63f9"><path d="m341.328125 170.671875h-170.65625c-5.886719 0-10.671875 4.785156-10.671875 10.671875v21.328125c0 5.886719 4.785156 10.671875 10.671875 10.671875h170.671875c5.886719 0 10.671875-4.785156 10.671875-10.671875v-21.328125c-.015625-5.886719-4.800781-10.671875-10.6875-10.671875zm0 0" data-original="#BE63F9" class="active-path" style="fill:#FFFFFF" data-old_color="#BE63F9"/><path d="m341.328125 234.671875h-170.65625c-5.886719 0-10.671875 4.785156-10.671875 10.671875v21.328125c0 5.886719 4.785156 10.671875 10.671875 10.671875h170.671875c5.886719 0 10.671875-4.785156 10.671875-10.671875v-21.328125c-.015625-5.886719-4.800781-10.671875-10.6875-10.671875zm0 0" data-original="#BE63F9" class="active-path" style="fill:#FFFFFF" data-old_color="#BE63F9"/><path d="m341.328125 298.671875h-170.65625c-5.886719 0-10.671875 4.785156-10.671875 10.671875v21.328125c0 5.886719 4.785156 10.671875 10.671875 10.671875h170.671875c5.886719 0 10.671875-4.785156 10.671875-10.671875v-21.328125c-.015625-5.886719-4.800781-10.671875-10.6875-10.671875zm0 0" data-original="#BE63F9" class="active-path" style="fill:#FFFFFF" data-old_color="#BE63F9"/></g></g> </svg>
