<?xml version="1.0"?>
<svg xmlns="http://www.w3.org/2000/svg" height="512px" viewBox="0 -25 512.00249 512" width="512px"><g><path d="m507.953125.835938c-2.105469-1.09375-4.53125-1.082032-6.59375-.136719 0-.007813-.625.296875-.664063.320312l-426.902343 249.800781c-2.925781 1.714844-4.339844 5.175782-3.453125 8.449219.886718 3.273438 3.859375 5.546875 7.25 5.546875h124.980468l69.6875 57.917969c.054688.046875.121094.078125.179688.125.25.195313.507812.378906.785156.542969.136719.082031.277344.152344.417969.222656.128906.066406.242187.140625.371094.199219.128906.054687.257812.097656.386719.148437.082031.027344.160156.0625.242187.089844.34375.117188.695313.207031 1.050781.273438.078125.015624.160156.027343.238282.039062.375.054688.746093.09375 1.121093.09375h.003907c.253906 0 .503906-.015625.753906-.039062.078125-.007813.15625-.023438.234375-.035157.171875-.019531.339843-.046875.507812-.082031.09375-.019531.1875-.042969.28125-.0625.148438-.039062.300781-.078125.449219-.125.097656-.03125.195312-.0625.292969-.097656.144531-.050782.28125-.105469.421875-.164063.097656-.042969.191406-.082031.289062-.125.144532-.070312.289063-.152343.433594-.230469.078125-.042968.160156-.082031.238281-.128906.210938-.128906.417969-.269531.617188-.417968.066406-.050782.128906-.109376.195312-.164063.109375-.089844.222657-.175781.332031-.269531l63.757813-57.714844h102.707031c3.515625 0 6.5625-2.4375 7.328125-5.867188l55.925781-249.804687c.742188-3.324219-.84375-6.730469-3.867187-8.304687zm-305.390625 248.957031h-97.265625l325.164063-190.273438zm82.003906 50.234375v-35.210938h38.90625zm157.980469-50.234375h-148.496094l38.09375-41.839844c2.792969-3.066406 2.570313-7.816406-.496093-10.609375-3.066407-2.792969-7.816407-2.574219-10.609376.496094l-49.535156 54.40625c-.027344.027344-.046875.0625-.074218.089844-.433594.492187-.800782 1.039062-1.09375 1.628906-.03125.0625-.0625.121094-.089844.183594-.269532.582031-.464844 1.203124-.582032 1.851562-.011718.074219-.023437.152344-.035156.230469-.035156.257812-.058594.519531-.070312.785156-.003906.066406-.007813.136719-.007813.203125 0 .03125-.003906.058594-.003906.085938v43.644531l-52.527344-43.660157 207.988281-173.644531-83.742187 91.980469c-2.792969 3.066406-2.570313 7.816406.496094 10.609375 3.066406 2.792969 7.820312 2.570313 10.609375-.496094l138.597656-152.230469zm0 0" data-original="#000000" class="active-path" data-old_color="#000000" fill="#AAAAAA"/><path d="m55.855469 131.117188h31.382812c4.144531 0 7.507813-3.363282 7.507813-7.511719 0-4.148438-3.363282-7.511719-7.507813-7.511719h-31.382812c-6.164063 0-11.179688-5.015625-11.179688-11.183594 0-6.164062 5.015625-11.183594 11.179688-11.183594h10.984375c2.601562 0 5.015625-1.34375 6.386718-3.554687 1.367188-2.210937 1.496094-4.96875.339844-7.296875-1.804687-3.632812-2.722656-7.539062-2.722656-11.613281 0-14.414063 11.726562-26.140625 26.140625-26.140625s26.136719 11.726562 26.136719 26.140625c0 4.074219-.914063 7.980469-2.71875 11.613281-1.160156 2.328125-1.03125 5.085938.339844 7.296875 1.371093 2.210937 3.785156 3.554687 6.382812 3.554687h12.230469c4.148437 0 7.511719-3.359374 7.511719-7.507812 0-9.605469 7.8125-17.417969 17.414062-17.417969 9.546875 0 17.324219 7.722657 17.414062 17.25-.003906.105469-.007812.207031-.007812.289063-.03125 3.789062 2.765625 7.007812 6.519531 7.507812 5.527344.734375 9.691407 5.492188 9.691407 11.0625 0 6.167969-5.015626 11.183594-11.183594 11.183594h-69.433594c-4.148438 0-7.511719 3.363281-7.511719 7.511719 0 4.148437 3.363281 7.511719 7.511719 7.511719h69.433594c14.449218 0 26.207031-11.753907 26.207031-26.207032 0-10.949218-6.859375-20.558594-16.707031-24.402344-2.703125-15.171874-15.992188-26.726562-31.929688-26.726562-10.828125 0-20.433594 5.332031-26.332031 13.507812-2.003906-20.839843-19.613281-37.1875-40.96875-37.1875-22.699219 0-41.160156 18.464844-41.160156 41.160157 0 2.523437.222656 5.011719.667969 7.445312h-.636719c-14.449219 0-26.207031 11.753907-26.207031 26.203125 0 14.453125 11.757812 26.207032 26.207031 26.207032zm0 0" data-original="#000000" class="active-path" data-old_color="#000000" fill="#AAAAAA"/><path d="m469.242188 420.667969c-2.578126-11.691407-13.023438-20.464844-25.480469-20.464844-7.171875 0-13.679688 2.910156-18.398438 7.613281-3.335937-14.457031-16.308593-25.261718-31.761719-25.261718-17.96875 0-32.589843 14.621093-32.589843 32.589843 0 1.25.070312 2.484375.207031 3.707031-11.019531.882813-19.714844 10.132813-19.714844 21.375 0 11.824219 9.621094 21.445313 21.445313 21.445313h97.535156c11.824219 0 21.445313-9.621094 21.445313-21.445313 0-8.59375-5.160157-16.175781-12.6875-19.558593zm-8.757813 25.980469h-97.535156c-3.542969 0-6.421875-2.882813-6.421875-6.421876 0-3.542968 2.878906-6.421874 6.421875-6.421874h8.1875c2.597656 0 5.015625-1.347657 6.382812-3.554688 1.371094-2.210938 1.5-4.972656.339844-7.300781-1.210937-2.441407-1.828125-5.066407-1.828125-7.804688 0-9.6875 7.882812-17.566406 17.570312-17.566406s17.570313 7.878906 17.570313 17.566406c0 2.738281-.617187 5.363281-1.828125 7.804688-1.160156 2.328125-1.03125 5.089843.339844 7.300781 1.371094 2.207031 3.785156 3.554688 6.382812 3.554688h9.117188c4.148437 0 7.511718-3.363282 7.511718-7.511719 0-6.101563 4.964844-11.066407 11.066407-11.066407 6.050781 0 10.984375 4.882813 11.066406 10.917969-.003906.101563-.007813.199219-.007813.285157 0 3.765624 2.789063 6.949218 6.519532 7.445312 3.171875.421875 5.566406 3.152344 5.566406 6.351562 0 3.539063-2.882812 6.421876-6.421875 6.421876zm0 0" data-original="#000000" class="active-path" data-old_color="#000000" fill="#AAAAAA"/><path d="m127.738281 350.5625c-2.578125-11.691406-13.023437-20.460938-25.476562-20.460938-7.175781 0-13.683594 2.90625-18.402344 7.609376-3.335937-14.453126-16.308594-25.261719-31.761719-25.261719-17.96875 0-32.589844 14.625-32.589844 32.59375 0 1.246093.070313 2.484375.207032 3.703125-11.019532.886718-19.714844 10.136718-19.714844 21.375 0 11.828125 9.621094 21.445312 21.445312 21.445312h97.535157c11.824219 0 21.445312-9.617187 21.445312-21.445312 0-8.589844-5.160156-16.175782-12.6875-19.558594zm-8.757812 25.984375h-97.535157c-3.542968 0-6.421874-2.882813-6.421874-6.425781 0-3.539063 2.878906-6.421875 6.421874-6.421875h8.1875c2.597657 0 5.015626-1.34375 6.382813-3.554688 1.371094-2.210937 1.5-4.96875.339844-7.300781-1.210938-2.4375-1.828125-5.0625-1.828125-7.800781 0-9.6875 7.882812-17.570313 17.570312-17.570313s17.570313 7.882813 17.570313 17.570313c0 2.738281-.617188 5.363281-1.828125 7.800781-1.160156 2.332031-1.03125 5.089844.339844 7.300781 1.371093 2.210938 3.785156 3.554688 6.382812 3.554688h9.117188c4.148437 0 7.511718-3.359375 7.511718-7.511719 0-6.101562 4.964844-11.066406 11.066406-11.066406 6.054688 0 10.984376 4.886718 11.066407 10.917968-.003907.101563-.007813.203126-.007813.285157 0 3.765625 2.789063 6.949219 6.519532 7.449219 3.171874.417968 5.566406 3.148437 5.566406 6.347656 0 3.542968-2.878906 6.425781-6.421875 6.425781zm0 0" data-original="#000000" class="active-path" data-old_color="#000000" fill="#AAAAAA"/></g> </svg>
