<svg xmlns="http://www.w3.org/2000/svg" width="65" height="54" stroke="#000" stroke-linecap="round" stroke-linejoin="round" fill="#fff" fill-rule="evenodd"><path d="M62.9242 29.8213c-.2176-.1783-.4762-.2998-.7524-.3537-1.6244 1.619-3.6066 3.3244-5.3666 4.471-.812.5395-1.8338.809-2.5098.809-1.557 0-2.2334-1.4845-2.4365-3.8445-.271-3.169-.4533-6.9653-.4533-12.8324 0-6.0178-1.3658-10.108-5.0036-10.429-.1537-.0134-.3093-.023-.471-.023-2.2333 0-3.3164 1.1466-4.7378 4.0462-1.2177 2.4947-3.1128 6.136-6.631 13.0142-3.0453 5.935-6.429 11.1956-9.34 14.8365-.8107 1.0088-1.4512 1.7022-2.0534 2.0977-.4022.265-.7884.3974-1.1946.3974-1.149 0-1.9867-.969-2.2667-3.2267-.0667-.5364-.1023-1.1453-.1023-1.831 0-4.6533 1.76-12.2053 4.8-23.3324C26.6385 5.529 25.6913 0 20.8184 0h-.0546l-.003.001c-1.1035.0133-2.0178.4124-2.8996 1.1067-.8675.683-1.736 2.1586-2.5467 4.143-.9088 2.233-6.4657 13.3782-15.3083 19.12-.104 2.183 1.1315 4.3644 3.6355 4.6013 2.28.216 3.8977-.745 5.9822-2.1444L8.798 30.568l-.2897 1.327a37.242 37.242 0 0 0-.6298 3.7867C6.631 46.8276 11.7967 52.328 17.8465 52.328c1.011 0 2.0133-.12 3.0075-.3733 6.6658-1.6907 13.0836-9.3365 20.6783-26.9378-.1156 1.9147-.1272 3.7022-.0445 5.3622.5 10.0876 4.4903 13.1142 10.1275 13.1142 4.2636 0 8.256-2.225 10.2863-4.9897 1.489-1.9556 2.0978-4.1138 2.0978-5.8 0-1.3085-.415-2.3534-1.0756-2.8836" fill="#4f4f4f" stroke="none"/></svg>